<?xml version="1.0" standalone="no"?>
<!DOCTYPE svg PUBLIC "-//W3C//DTD SVG 20010904//EN"
 "http://www.w3.org/TR/2001/REC-SVG-20010904/DTD/svg10.dtd">
<svg version="1.0" xmlns="http://www.w3.org/2000/svg"
 width="248.000000pt" height="248.000000pt" viewBox="0 0 248.000000 248.000000"
 preserveAspectRatio="xMidYMid meet">
<metadata>
Created by potrace 1.16, written by Peter Selinger 2001-2019
</metadata>
<g transform="translate(0.000000,248.000000) scale(0.100000,-0.100000)"
fill="#000000" stroke="none">
<path d="M1552 2231 c-99 -25 -209 -82 -280 -147 -113 -102 -158 -206 -150
-346 4 -69 10 -90 46 -160 23 -44 42 -90 42 -103 0 -12 -18 -67 -41 -120 -22
-54 -38 -104 -35 -111 3 -7 27 -23 53 -36 46 -22 48 -25 51 -68 2 -28 9 -50
20 -58 11 -8 17 -27 17 -50 0 -28 5 -39 24 -48 30 -15 41 -32 41 -65 0 -34 32
-75 65 -83 40 -10 96 10 212 74 125 70 154 74 184 28 16 -27 19 -44 16 -90 -7
-78 -41 -146 -130 -260 -120 -153 -155 -209 -173 -278 -18 -73 -13 -141 16
-206 27 -61 41 -62 18 -1 -13 33 -21 76 -21 117 0 91 33 159 154 323 55 72
111 156 125 184 52 105 40 240 -23 264 -51 19 -108 1 -233 -75 -43 -26 -81
-41 -112 -44 -54 -5 -62 4 -73 86 -4 28 -11 53 -16 53 -5 1 -15 2 -21 3 -8 1
-13 16 -13 38 0 27 -6 42 -22 53 -16 11 -22 25 -21 49 2 44 -5 52 -57 75 -25
11 -45 26 -45 33 0 8 16 47 36 88 20 41 37 91 37 110 1 21 -14 68 -35 115 -47
102 -61 166 -53 234 8 65 46 157 52 126 16 -80 43 -97 204 -126 122 -22 196
-48 228 -82 25 -28 50 -86 53 -126 l2 -30 32 19 c64 40 126 15 140 -56 8 -41
-1 -67 -42 -129 -19 -27 -34 -60 -34 -72 0 -13 25 -50 61 -90 35 -39 78 -103
102 -152 39 -78 42 -90 42 -165 0 -124 -26 -168 -199 -341 -88 -87 -150 -158
-163 -186 -24 -48 -31 -131 -14 -158 6 -9 9 7 9 46 0 36 7 74 17 94 9 19 81
97 159 174 113 111 149 152 170 199 79 168 49 344 -87 509 -60 73 -60 76 -20
136 42 62 53 129 29 186 -24 56 -72 77 -141 62 -29 -7 -31 -5 -50 45 -31 81
-73 103 -250 133 -160 27 -205 55 -205 126 0 61 125 158 270 209 89 31 259 39
349 16 233 -60 399 -250 456 -522 22 -105 26 -267 9 -384 -22 -155 -66 -264
-160 -395 l-36 -50 52 55 c66 70 133 205 166 335 50 193 42 462 -17 620 -47
126 -185 287 -300 349 -118 65 -331 85 -487 47z"/>
<path d="M541 1845 c-221 -40 -405 -230 -456 -471 -69 -325 103 -641 394 -728
78 -23 109 -19 35 5 -92 29 -152 66 -225 138 -110 109 -169 263 -169 437 0
298 160 517 421 579 127 30 278 13 364 -41 l40 -25 -30 26 c-43 38 -124 74
-192 85 -72 12 -89 12 -182 -5z"/>
<path d="M598 1545 c-120 -30 -202 -95 -254 -201 -27 -54 -29 -68 -29 -169 0
-106 1 -112 34 -173 38 -70 113 -144 163 -161 l33 -11 -30 23 c-67 50 -104 90
-136 149 -33 61 -34 67 -34 173 0 100 2 115 27 161 60 113 193 184 349 184
145 0 248 -99 249 -242 0 -39 23 -70 67 -92 41 -20 45 -29 33 -60 -7 -19 -6
-29 6 -41 10 -10 14 -24 10 -39 -4 -15 0 -28 9 -36 10 -9 12 -17 5 -30 -6 -11
-5 -28 3 -50 11 -29 10 -33 -11 -50 -20 -17 -138 -50 -176 -50 -21 0 -56 -48
-56 -78 0 -76 56 -162 124 -192 23 -9 85 -27 139 -39 53 -13 119 -34 145 -48
45 -24 46 -24 27 -3 -27 30 -74 48 -183 70 -141 30 -181 58 -212 151 -30 88
-11 112 110 136 109 22 118 32 117 122 -1 49 -5 72 -14 76 -11 4 -11 9 -3 26
9 16 8 24 -5 39 -12 13 -15 27 -10 53 7 34 5 37 -34 56 -51 27 -67 52 -75 120
-9 70 -30 118 -68 158 -66 68 -204 97 -320 68z"/>
</g>
</svg>
